<?xml version="1.0" encoding="UTF-8" standalone="no"?>
<svg
   xmlns:dc="http://purl.org/dc/elements/1.1/"
   xmlns:cc="http://creativecommons.org/ns#"
   xmlns:rdf="http://www.w3.org/1999/02/22-rdf-syntax-ns#"
   xmlns:svg="http://www.w3.org/2000/svg"
   xmlns="http://www.w3.org/2000/svg"
   xmlns:sodipodi="http://sodipodi.sourceforge.net/DTD/sodipodi-0.dtd"
   xmlns:inkscape="http://www.inkscape.org/namespaces/inkscape"
   sodipodi:docname="Icon.svg"
   inkscape:version="1.0 (4035a4fb49, 2020-05-01)"
   id="svg8"
   version="1.1"
   viewBox="0 0 33.866666 33.866668"
   height="128"
   width="128">
  <defs
     id="defs2" />
  <sodipodi:namedview
     inkscape:window-maximized="1"
     inkscape:window-y="-8"
     inkscape:window-x="-8"
     inkscape:window-height="1017"
     inkscape:window-width="1920"
     showborder="true"
     inkscape:pagecheckerboard="false"
     showguides="true"
     lock-margins="false"
     units="px"
     showgrid="true"
     inkscape:document-rotation="0"
     inkscape:current-layer="layer1"
     inkscape:document-units="px"
     inkscape:cy="68.695211"
     inkscape:cx="-35.211012"
     inkscape:zoom="4"
     inkscape:pageshadow="2"
     inkscape:pageopacity="0.0"
     borderopacity="1.0"
     bordercolor="#666666"
     pagecolor="#ffffff"
     id="base">
    <inkscape:grid
       originy="148.5"
       originx="105"
       enabled="false"
       visible="true"
       snapvisiblegridlinesonly="false"
       id="grid18"
       type="xygrid" />
    <inkscape:grid
       id="grid20"
       type="axonomgrid" />
  </sodipodi:namedview>
  <metadata
     id="metadata5">
    <rdf:RDF>
      <cc:Work
         rdf:about="">
        <dc:format>image/svg+xml</dc:format>
        <dc:type
           rdf:resource="http://purl.org/dc/dcmitype/StillImage" />
        <dc:title></dc:title>
      </cc:Work>
    </rdf:RDF>
  </metadata>
  <g
     id="layer1"
     inkscape:groupmode="layer"
     inkscape:label="Warstwa 1">
    <path
       id="path22"
       d="m 7.8147693,0.9326113 c 9.5795587,4.6636363 0,0 0,0 z"
       style="fill:none;stroke:#000000;stroke-width:0.268749px;stroke-linecap:butt;stroke-linejoin:miter;stroke-opacity:1" />
    <path
       id="path26"
       d="M 7.8147693,0.9326113 3.024988,3.2644294 7.8147693,5.5962476 12.604549,3.2644294 Z"
       style="fill:none;stroke:#000000;stroke-width:0.268749px;stroke-linecap:butt;stroke-linejoin:miter;stroke-opacity:1" />
    <path
       id="path28"
       d="M 3.024988,3.2644294 V 31.246247 L 7.8147693,33.578065 11.646593,31.71261 12.604549,31.246247 7.8147693,28.914429 V 0.9326113 L 12.604549,3.2644294 V 31.246247 L 7.8147693,28.914429 3.024988,31.246247 Z"
       style="fill:none;stroke:#000000;stroke-width:0.268749px;stroke-linecap:butt;stroke-linejoin:miter;stroke-opacity:1" />
    <path
       id="path30"
       d="M 3.024988,7.9280657 7.8147693,10.259883 12.604549,7.9280657 7.8147693,5.5962476 Z"
       style="fill:none;stroke:#000000;stroke-width:0.268749px;stroke-linecap:butt;stroke-linejoin:miter;stroke-opacity:1" />
    <path
       id="path36"
       d="M 7.8147693,10.259883 22.184108,17.255338 26.973889,14.92352 12.604549,7.9280657 Z"
       style="fill:none;stroke:#000000;stroke-width:0.268749px;stroke-linecap:butt;stroke-linejoin:miter;stroke-opacity:1" />
    <path
       id="path38"
       d="m 22.184108,17.255338 v -4.663637 l 4.789781,-2.331818 V 14.92352 10.259883 L 12.604549,3.2644294 7.8147693,5.5962476 22.184108,12.591701 Z"
       style="fill:none;stroke:#000000;stroke-width:0.268749px;stroke-linecap:butt;stroke-linejoin:miter;stroke-opacity:1" />
    <path
       id="path40"
       d="M 22.184108,12.591701 7.8147693,5.5962476 Z"
       style="fill:none;stroke:#000000;stroke-width:0.268749px;stroke-linecap:butt;stroke-linejoin:miter;stroke-opacity:1" />
    <path
       id="path42"
       d="m 7.8147693,33.578065 c 0,0 0,-23.318182 0,-23.318182 0,0 0,23.318182 0,23.318182 z"
       style="fill:none;stroke:#000000;stroke-width:0.268749px;stroke-linecap:butt;stroke-linejoin:miter;stroke-opacity:1" />
    <path
       id="path44"
       d="m 7.8147693,19.587156 9.5795587,4.663636 4.78978,-2.331818 -9.579559,-4.663636 z"
       style="fill:none;stroke:#000000;stroke-width:0.268749px;stroke-linecap:butt;stroke-linejoin:miter;stroke-opacity:1" />
    <path
       id="path48"
       d="m 17.394328,24.250792 v 4.663637 l 4.78978,-2.331819 v -4.663636 z"
       style="fill:none;stroke:#000000;stroke-width:0.268749px;stroke-linecap:butt;stroke-linejoin:miter;stroke-opacity:1" />
    <path
       id="path50"
       d="M 17.394328,28.914429 7.8147693,24.250792 12.604549,21.918974 22.184108,26.58261 Z"
       style="fill:none;stroke:#000000;stroke-width:0.268749px;stroke-linecap:butt;stroke-linejoin:miter;stroke-opacity:1" />
    <path
       id="path52"
       d="m 17.394328,24.250792 4.78978,2.331818"
       style="fill:none;stroke:#000000;stroke-width:0.268749px;stroke-linecap:butt;stroke-linejoin:miter;stroke-opacity:1" />
    <path
       id="path54"
       d="m 26.973889,24.250792 -4.789781,-2.331818 -4.78978,2.331818 4.78978,2.331818 z"
       style="fill:none;stroke:#000000;stroke-width:0.268749px;stroke-linecap:butt;stroke-linejoin:miter;stroke-opacity:1" />
    <path
       id="path56"
       d="m 17.394328,28.914429 4.78978,2.331818 4.789781,-2.331818 -4.789781,-2.331819 z"
       style="fill:none;stroke:#000000;stroke-width:0.268749px;stroke-linecap:butt;stroke-linejoin:miter;stroke-opacity:1" />
    <path
       id="path58"
       d="M 22.184108,31.246247 V 26.58261 l 4.789781,-2.331818 v 4.663637 z"
       style="fill:none;stroke:#000000;stroke-width:0.268749px;stroke-linecap:butt;stroke-linejoin:miter;stroke-opacity:1" />
    <path
       id="path60"
       d="m 12.604549,26.58261 3.831824,-1.865454 0.957955,-0.466364 v -4.663636 l -4.789779,2.331818 z"
       style="fill:none;stroke:#000000;stroke-width:0.268749px;stroke-linecap:butt;stroke-linejoin:miter;stroke-opacity:1" />
    <path
       id="path62"
       d="M 7.8147693,24.250792 3.024988,21.918974 7.8147693,19.587156 12.604549,21.918974 Z"
       style="fill:none;stroke:#000000;stroke-width:0.268749px;stroke-linecap:butt;stroke-linejoin:miter;stroke-opacity:1" />
    <path
       id="path64"
       d="M 3.024988,17.255338 7.8147693,14.92352 12.604549,17.255338 7.8147693,19.587156 3.024988,17.255338 V 12.591701 L 7.8147693,14.92352 12.604549,12.591701 7.8147693,10.259883 3.024988,12.591701 Z"
       style="fill:none;stroke:#000000;stroke-width:0.268749px;stroke-linecap:butt;stroke-linejoin:miter;stroke-opacity:1" />
    <path
       id="path66"
       d="M 3.024988,26.58261 7.8147693,28.914429 12.604549,26.58261 7.8147693,24.250792 Z"
       style="fill:none;stroke:#000000;stroke-width:0.268749px;stroke-linecap:butt;stroke-linejoin:miter;stroke-opacity:1" />
    <path
       id="path68"
       d="m 7.8147693,10.259883 4.7897797,2.331818 3.831824,-1.865454 0.957955,-0.466364 V 5.5962476 l -4.789779,2.3318181 v 4.6636353 l 4.789779,2.331819 4.78978,-2.331819 V 7.9280657 l -4.78978,2.3318173 v 4.663637 z"
       style="fill:#d45500;stroke:#000000;stroke-width:0.268749px;stroke-linecap:butt;stroke-linejoin:miter;stroke-opacity:1" />
    <path
       id="path70"
       d="m 15.122557,13.636675 c -1.077243,-0.530026 -1.998175,-0.983995 -2.046518,-1.008826 -0.07559,-0.03886 1.458908,-0.820808 3.612564,-1.840958 l 0.503438,-0.238468 v 2.030237 c 0,1.11663 -0.02494,2.028321 -0.05543,2.025965 -0.03049,-0.0025 -0.936813,-0.437924 -2.014052,-0.96795 z"
       style="fill:#d45500;stroke-width:0.0678693" />
    <path
       id="path72"
       d="m 16.009477,14.032274 c -2.362165,-1.147623 -2.808589,-1.373964 -2.808589,-1.424004 0,-0.02872 0.181211,-0.149924 0.402688,-0.269387 0.498709,-0.26901 3.317822,-1.644382 3.474216,-1.694986 0.10057,-0.03248 0.11313,0.09257 0.104959,1.044761 -0.0052,0.594949 -0.03006,1.482807 -0.05543,1.973004 l -0.04615,0.891278 z"
       style="fill:#d45500;stroke-width:0.0678693" />
    <path
       id="path74"
       d="m 17.520861,7.9092476 c 2.5e-5,-1.1654345 0.01,-1.6333936 0.02216,-1.0399173 0.01213,0.5934764 0.01213,1.5470104 -4.9e-5,2.1189684 -0.01213,0.57195 -0.02212,0.08638 -0.0221,-1.0790511 z"
       style="fill:#d45500;stroke-width:0.0678693" />
    <path
       id="path76"
       d="M 10.269624,6.6083631 8.1883214,5.5952822 10.263602,4.5866767 c 1.141405,-0.5547354 2.086773,-0.9989182 2.100817,-0.9870791 0.01409,0.011864 0.01677,0.9216082 0.0061,2.0216946 l -0.01952,2.00016 z"
       style="fill:#d45500;stroke-width:0.0678693" />
    <path
       id="path78"
       d="M 8.0271746,7.9072676 V 5.8694303 l 0.1663011,0.089894 c 0.091463,0.0495 1.02273,0.5054727 2.0694823,1.0134082 1.046754,0.5079272 1.90222,0.9404591 1.901039,0.9611752 -0.0021,0.0342 -3.8980763,1.9417576 -4.0654015,1.9904236 -0.044995,0.01309 -0.071418,-0.7330826 -0.071418,-2.0170634 z"
       style="fill:#d45500;stroke-width:0.0678693" />
    <path
       id="path80"
       d="m 8.0755911,9.0211897 c -0.058207,-1.023284 -0.064219,-3.0751039 -0.00903,-3.0751039 0.037948,0 2.7194879,1.3096309 3.6093209,1.7627564 l 0.433619,0.2208025 -0.285798,0.151961 c -0.332917,0.177006 -3.6482484,1.7907956 -3.6789762,1.7907956 -0.011418,0 -0.042516,-0.3830486 -0.069144,-0.8512116 z"
       style="fill:#d45500;stroke-width:0.0678693" />
    <path
       id="path82"
       d="M 5.6039947,9.0053657 C 4.4948211,8.4651937 3.5549447,7.9959417 3.5153819,7.9625767 3.4687451,7.9232222 4.1748541,7.5463676 5.5234632,6.8907913 6.6674699,6.3346649 7.6161231,5.8903185 7.6315762,5.9033522 c 0.01545,0.013009 0.019313,0.9372927 0.00856,2.0539225 l -0.019492,2.0302276 z"
       style="fill:#d45500;stroke-width:0.0678693" />
    <path
       id="path84"
       d="M 5.5696611,8.9529367 C 4.4822565,8.4182217 3.5925646,7.9645727 3.5925646,7.9448137 c 0,-0.055227 0.7770909,-0.4568397 2.4390373,-1.2604661 l 1.5151583,-0.7326409 0.020312,0.9943446 c 0.011169,0.5468972 0.011169,1.4409164 0,1.9867094 l -0.020312,0.9923556 z"
       style="fill:#d45500;stroke-width:0.0678693" />
    <path
       id="path86"
       d="m 3.2230142,5.6033085 c 0,-1.1140118 0.017966,-2.0254663 0.039929,-2.0254663 0.061097,0 4.1792851,2.0098472 4.1562111,2.0284118 -0.037993,0.030518 -4.1461549,2.0225373 -4.1711834,2.0225373 -0.013738,0 -0.024969,-0.9114628 -0.024969,-2.0254828 z"
       style="fill:#d45500;stroke-width:0.0678693" />
    <path
       id="path88"
       d="M 3.2674298,6.7422913 C 3.2390981,6.289804 3.2390445,5.4081313 3.2673094,4.783024 l 0.051391,-1.1365691 0.2293214,0.098116 C 3.9293239,3.9076999 7.3606804,5.5940545 7.3422121,5.6092318 7.3254414,5.6229768 4.5574249,6.9705227 3.7329168,7.3662854 L 3.3189382,7.5649976 Z"
       style="fill:#d45500;stroke-width:0.0678693" />
    <path
       id="path90"
       d="M 8.0271746,3.2648713 V 1.2174694 l 1.3488631,0.6577773 c 0.7418743,0.3617673 1.6731433,0.8146882 2.0694853,1.0064864 0.396343,0.1918063 0.720399,0.3637882 0.720121,0.3821891 -2.75e-4,0.018409 -0.931546,0.48681 -2.069486,1.0409072 L 8.0271746,5.3122731 Z"
       style="fill:#d45500;stroke-width:0.0678693" />
    <path
       id="path92"
       d="M 5.5340056,4.3092149 C 4.386337,3.7527122 3.4471698,3.2833622 3.4469646,3.2662213 c -2.052e-4,-0.0171 0.9387935,-0.487571 2.0866663,-1.045391 l 2.0870372,-1.0142345 0.020285,1.0298127 c 0.011151,0.5664028 0.011151,1.4921509 0,2.0572282 l -0.020285,1.0274155 z"
       style="fill:#d45500;stroke-width:0.0678693" />
    <path
       id="path94"
       d="M 3.2230142,10.255473 V 8.2007417 l 2.0510074,0.99832 c 1.1280529,0.5490816 2.0732815,1.0163533 2.1005053,1.0383873 0.040865,0.03305 -1.513449,0.813019 -3.7197875,1.866583 L 3.2230142,12.31019 Z"
       style="fill:#d45500;stroke-width:0.0678693" />
    <path
       id="path96"
       d="M 5.5881401,13.66091 C 4.4702485,13.115632 3.5287423,12.647109 3.4959074,12.61974 c -0.032837,-0.02741 0.8758284,-0.505161 2.0192499,-1.06177 1.1434241,-0.556618 2.0937044,-0.999598 2.1117329,-0.984388 0.018028,0.01522 0.023996,0.939134 0.013274,2.053187 l -0.019491,2.025548 z"
       style="fill:#d45500;stroke-width:0.0678693" />
    <path
       id="path98"
       d="m 8.0271746,12.578848 v -2.030057 l 0.4249847,0.204718 c 0.2337404,0.11259 1.1794644,0.572809 2.1016087,1.022719 l 1.676627,0.817993 -2.066141,1.007338 c -1.1363783,0.55404 -2.0821018,1.007337 -2.1016111,1.007337 -0.019518,0 -0.035468,-0.913525 -0.035468,-2.030048 z"
       style="fill:#d45500;stroke-width:0.0678693" />
    <path
       id="path100"
       d="m 10.318393,11.295881 c -1.1178923,-0.54477 -2.0392244,-1.01079 -2.0474019,-1.035605 -0.01727,-0.05236 4.0427099,-2.0292543 4.0884119,-1.9907253 0.01677,0.01415 0.02177,0.923751 0.01106,2.0212923 l -0.01952,1.995529 z"
       style="fill:#d45500;stroke-width:0.0678693" />
    <path
       id="path102"
       d="m 3.2230142,14.920509 v -2.070966 l 0.1662976,0.09052 c 0.091463,0.04983 1.0227308,0.506913 2.0694834,1.015805 1.0467554,0.508909 1.9031885,0.944567 1.9031885,0.968114 0,0.02356 -0.8564331,0.458247 -1.9031885,0.965978 -1.0467526,0.507723 -1.9780216,0.96327 -2.0694834,1.012328 l -0.1662976,0.08919 z"
       style="fill:#d45500;stroke-width:0.0678693" />
    <path
       id="path104"
       d="M 5.6250954,18.342317 C 4.5681786,17.826134 3.6304424,17.370898 3.5412338,17.3307 3.390706,17.26287 3.4358942,17.230121 4.1694723,16.875505 4.6042089,16.665355 5.5668895,16.19738 6.3087625,15.835555 l 1.3488609,-0.657867 v 2.052695 c 0,1.128985 -0.024933,2.052197 -0.055433,2.051575 -0.030491,-7.37e-4 -0.9201823,-0.423458 -1.977095,-0.939641 z"
       style="fill:#d45500;stroke-width:0.0678693" />
    <path
       id="path106"
       d="m 8.0271746,17.254601 c 0,-1.118078 0.028064,-2.023519 0.062373,-2.012089 0.1129114,0.03764 4.1455324,2.008988 4.1293594,2.018668 -0.0511,0.0306 -3.8885598,1.892086 -4.0254354,1.95268 l -0.1663011,0.07355 z"
       style="fill:#d45500;stroke-width:0.0678693" />
    <path
       id="path110"
       d="m 3.2230142,19.585577 v -2.059372 l 0.3510714,0.173692 c 0.1930915,0.09554 1.1435449,0.55845 2.1121167,1.0287 l 1.7610443,0.855008 -0.5045705,0.248392 c -0.2775122,0.13662 -1.2279654,0.600431 -2.1121163,1.03068 l -1.6075456,0.78228 z"
       style="fill:#d45500;stroke-width:0.0678693" />
    <path
       id="path112"
       d="M 5.5285676,22.963154 C 4.4185599,22.419677 3.5072196,21.95126 3.5033623,21.92223 3.4995223,21.89319 4.2912837,21.482327 5.2628708,21.009164 6.234454,20.53601 7.1707415,20.079088 7.3435074,19.9938 l 0.314116,-0.155078 v 2.059266 c 0,1.132609 -0.024933,2.057932 -0.055433,2.056295 -0.030491,-0.0016 -0.9636202,-0.447652 -2.0736228,-0.991129 z"
       style="fill:#d45500;stroke-width:0.0678693" />
    <path
       id="path114"
       d="m 8.0271746,21.93794 c 0,-1.1174 0.016396,-2.031636 0.036396,-2.031636 0.063229,0 3.9131034,1.881074 4.0159594,1.962221 0.07961,0.06284 -0.241637,0.242591 -1.701227,0.951987 -0.9896623,0.481009 -1.9235293,0.936328 -2.0752584,1.011813 l -0.2758726,0.13725 z"
       style="fill:#d45500;stroke-width:0.0678693" />
    <path
       id="path116"
       d="M 10.264343,20.604221 C 9.1573767,20.06612 8.2510518,19.610785 8.2502909,19.592384 c -8.778e-4,-0.01841 0.2064878,-0.134476 0.4605538,-0.257924 0.254066,-0.123447 1.185335,-0.576711 2.0694863,-1.007247 l 1.607546,-0.782795 v 2.0223 c 0,1.112261 -0.02494,2.020843 -0.05543,2.019084 -0.03049,-0.0016 -0.961133,-0.443471 -2.068102,-0.981581 z"
       style="fill:#d45500;stroke-width:0.0678693" />
    <path
       id="path118"
       d="m 12.75743,19.593112 c 0,-1.143229 0.02865,-2.056172 0.06419,-2.044677 0.175219,0.0567 4.148519,2.014445 4.147533,2.043605 -8.78e-4,0.0279 -1.744918,0.885985 -3.78095,1.860358 l -0.430786,0.206149 z"
       style="fill:#d45500;stroke-width:0.0678693" />
    <path
       id="path120"
       d="m 12.766971,20.513951 c 0.0054,-0.591291 0.03019,-1.489688 0.05543,-1.996453 l 0.04589,-0.921404 1.071701,0.519668 c 2.005904,0.972655 2.882496,1.42128 2.882496,1.475215 0,0.02962 -0.424058,0.263356 -0.942354,0.519414 -1.466138,0.724361 -3.038697,1.478619 -3.082765,1.478619 -0.02198,0 -0.03565,-0.483783 -0.0304,-1.075059 z"
       style="fill:#d45500;stroke-width:0.0678693" />
    <path
       id="path122"
       d="m 12.782454,19.615465 c 0.02689,-1.085457 0.06127,-1.983976 0.07638,-1.996732 0.02824,-0.02381 1.756192,0.804805 3.172937,1.521565 0.439095,0.222152 0.78661,0.433612 0.772255,0.469922 -0.02749,0.06955 -3.887042,1.976572 -4.003106,1.97798 -0.04018,4.9e-4 -0.04764,-0.79601 -0.01847,-1.972735 z"
       style="fill:#d45500;stroke-width:0.0678693" />
    <path
       id="path124"
       d="m 11.722685,21.269698 c -0.849773,-0.388522 -3.3199868,-1.616433 -3.3590634,-1.669754 -0.026102,-0.03567 3.6458464,-1.877907 3.9647234,-1.98918 0.0673,-0.02348 0.06435,1.690388 -0.0052,3.026054 l -0.04614,0.88632 z"
       style="fill:#d45500;stroke-width:0.0678693" />
    <path
       id="path128"
       d="m 19.864725,29.942081 c -1.111337,-0.544123 -2.032991,-0.999761 -2.04812,-1.012516 -0.02344,-0.01972 3.932562,-1.973937 4.115133,-2.032765 0.03588,-0.01154 0.06446,0.88011 0.06446,2.009897 0,1.116867 -0.02492,2.029328 -0.05543,2.027692 -0.03049,-0.0016 -0.964709,-0.448176 -2.076048,-0.992308 z"
       style="fill:#d45500;stroke-width:0.0678693" />
    <path
       id="path130"
       d="m 22.365755,28.911884 c 0,-1.114012 0.01766,-2.025466 0.03918,-2.025466 0.04425,0 4.031049,1.929084 4.120514,1.993786 0.0486,0.0351 -4.000222,2.057163 -4.11916,2.057163 -0.0223,0 -0.04053,-0.911463 -0.04053,-2.025483 z"
       style="fill:#d45500;stroke-width:0.0678693" />
    <path
       id="path132"
       d="m 19.831167,25.25619 c -1.129799,-0.551511 -2.044437,-1.009374 -2.032532,-1.017458 0.03525,-0.02397 3.849947,-1.875297 4.031271,-1.956452 l 0.166297,-0.07437 v 2.027667 c 0,1.115223 -0.02492,2.026718 -0.05543,2.025556 -0.03049,-8.18e-4 -0.97981,-0.453354 -2.109606,-1.004882 z"
       style="fill:#d45500;stroke-width:0.0678693" />
    <path
       id="path134"
       d="m 22.365755,24.239182 c 0,-1.120532 0.02806,-2.027986 0.06237,-2.016564 0.313869,0.104539 4.135187,2.020966 4.093965,2.05317 -0.07552,0.05899 -3.907025,1.92006 -4.044604,1.964577 -0.0983,0.03175 -0.111739,-0.208743 -0.111739,-2.001183 z"
       style="fill:#d45500;stroke-width:0.0678693" />
    <path
       id="path136"
       d="M 3.2230142,24.235517 V 22.20785 l 0.1662976,0.07355 c 0.1664259,0.07364 3.9906709,1.930647 4.0310268,1.957394 0.027306,0.01808 -4.0849339,2.024337 -4.149312,2.024337 -0.026396,0 -0.048011,-0.912445 -0.048011,-2.027667 z"
       style="fill:#d45500;stroke-width:0.0678693" />
    <path
       id="path138"
       d="m 5.4957505,27.614076 c -1.1280531,-0.55323 -2.049793,-1.020396 -2.0483086,-1.03815 0.00232,-0.02667 1.7828019,-0.902299 3.7797821,-1.858827 l 0.4303994,-0.206158 v 2.060248 c 0,1.133141 -0.024933,2.057661 -0.055433,2.054503 -0.030491,-0.0033 -0.9783855,-0.458394 -2.1064399,-1.011616 z"
       style="fill:#d45500;stroke-width:0.0678693" />
    <path
       id="path140"
       d="m 8.0271746,26.613129 c 0,-1.117956 0.020107,-2.03265 0.044665,-2.03265 0.078644,0 4.0914404,1.961664 4.0929014,2.000814 8.78e-4,0.02078 -0.855031,0.45324 -1.901784,0.961184 -1.0467523,0.507935 -1.9780216,0.963965 -2.0694844,1.013408 l -0.1662993,0.08988 z"
       style="fill:#d45500;stroke-width:0.0678693" />
    <path
       id="path142"
       d="M 10.329542,25.298597 C 9.2584287,24.77343 8.3505592,24.317188 8.3120472,24.284722 c -0.044085,-0.03723 0.6361495,-0.401743 1.8366098,-0.984313 1.048643,-0.508893 1.98146,-0.965144 2.072923,-1.013891 l 0.166297,-0.08863 v 2.032642 c 0,1.117964 -0.02494,2.030457 -0.05543,2.027774 -0.03049,-0.0025 -0.931796,-0.434553 -2.002905,-0.959711 z"
       style="fill:#d45500;stroke-width:0.0678693" />
    <path
       id="path144"
       d="m 12.75743,24.273947 c 0,-1.133943 0.01713,-2.061712 0.03804,-2.061712 0.02093,0 0.970171,0.453592 2.109442,1.007975 1.634556,0.795412 2.051288,1.02353 1.976014,1.08167 -0.05247,0.04058 -0.893619,0.459973 -1.869233,0.932097 -0.975614,0.472132 -1.881938,0.913156 -2.014056,0.980059 l -0.240204,0.121639 z"
       style="fill:#d45500;stroke-width:0.0678693" />
    <path
       id="path146"
       d="m 15.064755,22.933536 -2.090334,-1.018677 2.078502,-1.009056 c 1.143174,-0.554989 2.092606,-0.997175 2.109848,-0.982628 0.01731,0.01456 0.02257,0.927008 0.01178,2.027733 l -0.01952,2.001297 z"
       style="fill:#d45500;stroke-width:0.0678693" />
    <path
       id="path148"
       d="m 17.56159,21.89865 v -2.069001 l 0.166298,0.09079 c 0.09147,0.04999 0.981157,0.486491 1.977096,0.970151 0.99594,0.483652 1.87043,0.916282 1.943311,0.961396 0.118073,0.07306 -0.09044,0.190596 -1.912894,1.078078 -1.124971,0.547813 -2.074294,1.005381 -2.109607,1.01682 -0.03554,0.01154 -0.06421,-0.902995 -0.06421,-2.048229 z"
       style="fill:#d45500;stroke-width:0.0678693" />
    <path
       id="path150"
       d="m 15.123872,27.630472 c -1.11717,-0.542683 -2.040163,-1.009325 -2.051091,-1.036972 -0.01088,-0.02765 0.903117,-0.499802 2.031217,-1.049236 l 2.051087,-0.998959 0.02028,1.01475 c 0.01124,0.558106 0.01124,1.474282 0,2.035939 l -0.02028,1.021197 z"
       style="fill:#d45500;stroke-width:0.0678693" />
    <path
       id="path152"
       d="m 17.56159,26.571205 v -2.063209 l 0.240209,0.122269 c 0.132113,0.06725 1.038439,0.508287 2.014055,0.9801 0.975614,0.471805 1.813819,0.888824 1.86268,0.926705 0.06665,0.05171 -0.374745,0.294521 -1.767802,0.972565 -1.02115,0.497021 -1.967448,0.953419 -2.102885,1.014226 l -0.246257,0.110553 z"
       style="fill:#d45500;stroke-width:0.0678693" />
    <path
       id="path154"
       d="m 24.679501,27.619157 c -1.146153,-0.557256 -2.059192,-1.034174 -2.02898,-1.059816 0.03022,-0.02569 0.967976,-0.491694 2.083913,-1.035654 l 2.028979,-0.989035 0.02027,1.020077 c 0.01106,0.561035 0.01106,1.48302 0,2.04885 l -0.02027,1.028781 z"
       style="fill:#d45500;stroke-width:0.0678693" />
    <path
       id="path156"
       d="m 3.2230142,28.911884 c 0,-1.114012 0.014077,-2.025466 0.031258,-2.025466 0.02892,0 4.1225716,1.986062 4.1617428,2.019101 0.020223,0.01702 -4.1013674,2.031848 -4.156477,2.031848 -0.02008,0 -0.036521,-0.911463 -0.036521,-2.025483 z"
       style="fill:#d45500;stroke-width:0.0678693" />
    <path
       id="path158"
       d="M 5.5340056,32.291973 C 4.386337,31.735462 3.4468772,31.26612 3.4463089,31.24898 3.4457237,31.23188 4.384742,30.76163 5.5329752,30.20408 l 2.0876929,-1.013752 0.020285,1.02933 c 0.011151,0.566124 0.011151,1.491652 0,2.056737 l -0.020285,1.027407 z"
       style="fill:#d45500;stroke-width:0.0678693" />
    <path
       id="path160"
       d="M 8.0271746,31.247875 V 29.19801 l 1.8662341,0.906759 c 2.3729453,1.152949 2.2727383,1.102491 2.2727383,1.144366 0,0.01956 -0.324281,0.192526 -0.720624,0.384333 -0.396342,0.191798 -1.327611,0.644719 -2.0694853,1.006494 l -1.3488631,0.657769 z"
       style="fill:#d45500;stroke-width:0.0678693" />
    <path
       id="path162"
       d="M 10.392305,30 C 9.3557137,29.491484 8.4345732,29.038555 8.3453263,28.993514 8.1933589,28.916854 8.2845236,28.862196 9.7820317,28.132721 10.661466,27.70433 11.607549,27.246516 11.884439,27.115361 l 0.503438,-0.238467 v 2.030236 c 0,1.11663 -0.02494,2.027365 -0.05543,2.023847 C 12.301957,30.927677 11.428893,30.508533 10.392307,30 Z"
       style="fill:#d45500;stroke-width:0.0678693" />
    <path
       id="path164"
       d="M 10.299915,15.961342 C 9.1718597,15.408407 8.2489064,14.940652 8.2489064,14.9219 c 0,-0.01874 0.9312693,-0.486712 2.0694866,-1.039893 l 2.069484,-1.005791 v 2.050462 c 0,1.127757 -0.0082,2.048113 -0.01847,2.045233 -0.01017,-0.0033 -0.94143,-0.457633 -2.069486,-1.010569 z"
       style="fill:#d45500;stroke-width:0.0678693" />
    <path
       id="path166"
       d="M 12.75743,5.5752858 V 3.508444 l 0.314117,0.1587354 c 0.172774,0.0873 1.134718,0.5565764 2.13767,1.0428382 l 1.823549,0.8841027 -2.034238,0.99054 C 13.879698,7.1294467 12.917749,7.5902549 12.86086,7.608664 12.77351,7.636891 12.757435,7.3208522 12.757435,5.5752858 Z"
       style="fill:#d45500;stroke-width:0.0678693" />
    <path
       id="path168"
       d="m 17.56159,7.9402977 c 0,-1.1368064 0.02806,-2.0575719 0.06237,-2.0461501 0.03431,0.011455 0.98201,0.4686627 2.106004,1.0160837 1.568226,0.7637645 2.022237,1.0117554 1.951677,1.0660334 -0.05056,0.03895 -0.89018,0.456775 -1.865794,0.928579 -0.975615,0.471797 -1.881938,0.9128536 -2.014055,0.9800996 l -0.240208,0.1222607 z"
       style="fill:#d45500;stroke-width:0.0678693" />
    <path
       id="path170"
       d="M 22.365755,10.250695 V 8.1940317 l 1.42277,0.691986 c 2.217795,1.0786416 2.802061,1.3711823 2.776674,1.3902863 -0.03356,0.02528 -3.832999,1.869603 -4.033147,1.957787 l -0.166297,0.07323 z"
       style="fill:#d45500;stroke-width:0.0678693" />
    <path
       id="path172"
       d="m 19.867265,15.94938 c -1.420048,-0.690553 -2.06102,-1.034075 -1.995575,-1.06947 0.05302,-0.02872 0.994416,-0.490933 2.091983,-1.02721 l 1.995576,-0.97506 0.02025,1.021434 c 0.01124,0.561788 0.01124,1.481834 0,2.04453 l -0.02025,1.023104 z"
       style="fill:#d45500;stroke-width:0.0678693" />
    <path
       id="path174"
       d="m 22.365755,14.920001 v -2.066293 l 0.240208,0.122113 c 0.132114,0.06717 1.038438,0.508026 2.014055,0.979691 0.975614,0.471666 1.81549,0.885232 1.866391,0.919031 0.08475,0.05629 -0.782224,0.503657 -3.695669,1.907043 l -0.424985,0.204709 z"
       style="fill:#d45500;stroke-width:0.0678693" />
    <path
       id="path176"
       d="m 24.704307,13.639686 c -1.132511,-0.550776 -2.057238,-1.023366 -2.054949,-1.050185 0.005,-0.05858 4.081445,-2.048662 4.123627,-2.013096 0.01623,0.01366 0.02066,0.933791 0.01,2.044759 l -0.0195,2.019952 z"
       style="fill:#d45500;stroke-width:0.0678693" />
    <path
       id="path178"
       d="m 3.024988,3.2644294 19.15912,9.3272716 z"
       style="fill:none;stroke:#000000;stroke-width:0.268749px;stroke-linecap:butt;stroke-linejoin:miter;stroke-opacity:1" />
  </g>
</svg>
